{
  "asset": {
    "generator": "Khronos glTF Blender I/O v3.4.50",
    "version": "2.0"
  },
  "extensionsUsed": ["KHR_materials_specular", "KHR_materials_ior"],
  "scene": 0,
  "scenes": [
    {
      "name": "Scene",
      "nodes": [0, 1, 2, 3, 4, 5, 6, 7]
    }
  ],
  "nodes": [
    {
      "mesh": 0,
      "name": "Plane.004",
      "scale": [0.473442405462265, 0.473442405462265, 0.473442405462265]
    },
    {
      "camera": 0,
      "name": "Camera",
      "rotation": [
        -0.038068171590566635, -0.12870067358016968, -0.004944189451634884,
        0.9909402132034302
      ],
      "translation": [
        -0.7855660915374756, 0.24625687301158905, 2.9590747356414795
      ]
    },
    {
      "name": "Area.007",
      "rotation": [
        -0.6164025068283081, -0.3416190445423126, 0.1679060161113739,
        0.6893126964569092
      ],
      "translation": [
        -11.181551933288574, 7.97749137878418, -0.009929537773132324
      ]
    },
    {
      "name": "Area.005",
      "rotation": [
        0.653281569480896, -0.27059829235076904, -0.27059799432754517,
        0.6532814502716064
      ],
      "translation": [-6.467141151428223, -7.414917945861816, 0]
    },
    {
      "name": "Area.004",
      "rotation": [
        0.6532814502716064, 0.2705979645252228, 0.2705981731414795,
        0.653281569480896
      ],
      "translation": [9.523149490356445, -5.210554122924805, 1.7842780351638794]
    },
    {
      "name": "Area.002",
      "translation": [0, 0, 25.399837493896484]
    },
    {
      "name": "Area.001",
      "rotation": [
        -0.6532815098762512, 0.27059808373451233, -0.27059805393218994,
        0.6532815098762512
      ],
      "translation": [5.810513496398926, 6.420191764831543, 2.1568808555603027]
    },
    {
      "name": "Area",
      "rotation": [-0.7071068286895752, 0, 0, 0.7071068286895752],
      "translation": [-0.5709304809570312, 4.182478904724121, 0]
    }
  ],
  "cameras": [
    {
      "name": "Camera",
      "orthographic": {
        "xmag": 1.2450000047683716,
        "ymag": 1.2450000047683716,
        "zfar": 1000,
        "znear": 0.10000000149011612
      },
      "type": "orthographic"
    }
  ],
  "materials": [
    {
      "doubleSided": true,
      "extensions": {
        "KHR_materials_specular": {
          "specularColorFactor": [
            0.23472830685192766, 0.23472830685192766, 0.23472830685192766
          ]
        },
        "KHR_materials_ior": {
          "ior": 1.4500000476837158
        }
      },
      "name": "orange",
      "pbrMetallicRoughness": {
        "baseColorFactor": [
          0.7758224010467529, 0.18116427958011627, 0.010960093699395657, 1
        ],
        "metallicFactor": 0,
        "roughnessFactor": 0.5363636612892151
      }
    },
    {
      "doubleSided": true,
      "name": "blue gray",
      "pbrMetallicRoughness": {
        "baseColorFactor": [
          0.016807381063699722, 0.03433981165289879, 0.06301002949476242, 1
        ],
        "metallicFactor": 0,
        "roughnessFactor": 0.5
      }
    },
    {
      "doubleSided": true,
      "emissiveFactor": [
        0.9111886620521545, 0.9111886620521545, 0.9111886620521545
      ],
      "extensions": {
        "KHR_materials_specular": {
          "specularColorFactor": [0, 0, 0]
        },
        "KHR_materials_ior": {
          "ior": 1.4500000476837158
        }
      },
      "name": "white",
      "pbrMetallicRoughness": {
        "baseColorFactor": [
          0.800000011920929, 0.800000011920929, 0.800000011920929, 1
        ],
        "metallicFactor": 0,
        "roughnessFactor": 0.18698060512542725
      }
    },
    {
      "doubleSided": true,
      "extensions": {
        "KHR_materials_specular": {
          "specularColorFactor": [
            0.24633216632501845, 0.24633216632501845, 0.24633216632501845
          ]
        },
        "KHR_materials_ior": {
          "ior": 1.4500000476837158
        }
      },
      "name": "Black",
      "pbrMetallicRoughness": {
        "baseColorFactor": [0, 0, 0, 1],
        "metallicFactor": 0,
        "roughnessFactor": 0.32240113615989685
      }
    },
    {
      "doubleSided": true,
      "name": "Brown",
      "pbrMetallicRoughness": {
        "baseColorFactor": [
          0.18116427958011627, 0.046665091067552567, 0.008023194968700409, 1
        ],
        "metallicFactor": 0,
        "roughnessFactor": 0.5
      }
    }
  ],
  "meshes": [
    {
      "name": "Plane.004",
      "primitives": [
        {
          "attributes": {
            "POSITION": 0,
            "TEXCOORD_0": 1,
            "NORMAL": 2
          },
          "indices": 3,
          "material": 0
        },
        {
          "attributes": {
            "POSITION": 4,
            "TEXCOORD_0": 5,
            "NORMAL": 6
          },
          "indices": 7,
          "material": 1
        },
        {
          "attributes": {
            "POSITION": 8,
            "TEXCOORD_0": 9,
            "NORMAL": 10
          },
          "indices": 11,
          "material": 2
        },
        {
          "attributes": {
            "POSITION": 12,
            "TEXCOORD_0": 13,
            "NORMAL": 14
          },
          "indices": 15,
          "material": 3
        },
        {
          "attributes": {
            "POSITION": 16,
            "TEXCOORD_0": 17,
            "NORMAL": 18
          },
          "indices": 19,
          "material": 4
        }
      ]
    }
  ],
  "accessors": [
    {
      "bufferView": 0,
      "componentType": 5126,
      "count": 656,
      "max": [1.9936909675598145, 1.9682142734527588, 0.928046703338623],
      "min": [-1.9936909675598145, -1.6731387376785278, -2.8543014526367188],
      "type": "VEC3"
    },
    {
      "bufferView": 1,
      "componentType": 5126,
      "count": 656,
      "type": "VEC2"
    },
    {
      "bufferView": 2,
      "componentType": 5126,
      "count": 656,
      "type": "VEC3"
    },
    {
      "bufferView": 3,
      "componentType": 5123,
      "count": 690,
      "type": "SCALAR"
    },
    {
      "bufferView": 4,
      "componentType": 5126,
      "count": 6,
      "max": [0.7599252462387085, -0.27600762248039246, -0.025863490998744965],
      "min": [-0.7599252462387085, -0.5253443717956543, -0.025863520801067352],
      "type": "VEC3"
    },
    {
      "bufferView": 5,
      "componentType": 5126,
      "count": 6,
      "type": "VEC2"
    },
    {
      "bufferView": 6,
      "componentType": 5126,
      "count": 6,
      "type": "VEC3"
    },
    {
      "bufferView": 7,
      "componentType": 5123,
      "count": 6,
      "type": "SCALAR"
    },
    {
      "bufferView": 8,
      "componentType": 5126,
      "count": 88,
      "max": [0.8470236659049988, -1.1197645664215088, 0.8196507692337036],
      "min": [-0.8470236659049988, -1.7738995552062988, -0.015819251537322998],
      "type": "VEC3"
    },
    {
      "bufferView": 9,
      "componentType": 5126,
      "count": 88,
      "type": "VEC2"
    },
    {
      "bufferView": 10,
      "componentType": 5126,
      "count": 88,
      "type": "VEC3"
    },
    {
      "bufferView": 11,
      "componentType": 5123,
      "count": 102,
      "type": "SCALAR"
    },
    {
      "bufferView": 12,
      "componentType": 5126,
      "count": 23,
      "max": [0.3284030854701996, -1.0698775053024292, 0.928046703338623],
      "min": [-0.3284030854701996, -1.5124318599700928, 0.6021643877029419],
      "type": "VEC3"
    },
    {
      "bufferView": 13,
      "componentType": 5126,
      "count": 23,
      "type": "VEC2"
    },
    {
      "bufferView": 14,
      "componentType": 5126,
      "count": 23,
      "type": "VEC3"
    },
    {
      "bufferView": 15,
      "componentType": 5123,
      "count": 24,
      "type": "SCALAR"
    },
    {
      "bufferView": 16,
      "componentType": 5126,
      "count": 48,
      "max": [1.9936909675598145, 1.9682142734527588, -0.24965782463550568],
      "min": [-1.9936909675598145, 0.09232276678085327, -0.696081817150116],
      "type": "VEC3"
    },
    {
      "bufferView": 17,
      "componentType": 5126,
      "count": 48,
      "type": "VEC2"
    },
    {
      "bufferView": 18,
      "componentType": 5126,
      "count": 48,
      "type": "VEC3"
    },
    {
      "bufferView": 19,
      "componentType": 5123,
      "count": 60,
      "type": "SCALAR"
    }
  ],
  "bufferViews": [
    {
      "buffer": 0,
      "byteLength": 7872,
      "byteOffset": 0,
      "target": 34962
    },
    {
      "buffer": 0,
      "byteLength": 5248,
      "byteOffset": 7872,
      "target": 34962
    },
    {
      "buffer": 0,
      "byteLength": 7872,
      "byteOffset": 13120,
      "target": 34962
    },
    {
      "buffer": 0,
      "byteLength": 1380,
      "byteOffset": 20992,
      "target": 34963
    },
    {
      "buffer": 0,
      "byteLength": 72,
      "byteOffset": 22372,
      "target": 34962
    },
    {
      "buffer": 0,
      "byteLength": 48,
      "byteOffset": 22444,
      "target": 34962
    },
    {
      "buffer": 0,
      "byteLength": 72,
      "byteOffset": 22492,
      "target": 34962
    },
    {
      "buffer": 0,
      "byteLength": 12,
      "byteOffset": 22564,
      "target": 34963
    },
    {
      "buffer": 0,
      "byteLength": 1056,
      "byteOffset": 22576,
      "target": 34962
    },
    {
      "buffer": 0,
      "byteLength": 704,
      "byteOffset": 23632,
      "target": 34962
    },
    {
      "buffer": 0,
      "byteLength": 1056,
      "byteOffset": 24336,
      "target": 34962
    },
    {
      "buffer": 0,
      "byteLength": 204,
      "byteOffset": 25392,
      "target": 34963
    },
    {
      "buffer": 0,
      "byteLength": 276,
      "byteOffset": 25596,
      "target": 34962
    },
    {
      "buffer": 0,
      "byteLength": 184,
      "byteOffset": 25872,
      "target": 34962
    },
    {
      "buffer": 0,
      "byteLength": 276,
      "byteOffset": 26056,
      "target": 34962
    },
    {
      "buffer": 0,
      "byteLength": 48,
      "byteOffset": 26332,
      "target": 34963
    },
    {
      "buffer": 0,
      "byteLength": 576,
      "byteOffset": 26380,
      "target": 34962
    },
    {
      "buffer": 0,
      "byteLength": 384,
      "byteOffset": 26956,
      "target": 34962
    },
    {
      "buffer": 0,
      "byteLength": 576,
      "byteOffset": 27340,
      "target": 34962
    },
    {
      "buffer": 0,
      "byteLength": 120,
      "byteOffset": 27916,
      "target": 34963
    }
  ],
  "buffers": [
    {
      "byteLength": 28036,
      "uri": "data:application/octet-stream;base64,"
    }
  ]
}
