<svg xmlns="http://www.w3.org/2000/svg" enable-background="new 0 0 500 421" viewBox="0 0 500 421"><path fill="#ffbe55" d="M483.047 329.465c0 33.169-104.021 60.059-232.349 60.059-128.313 0-232.334-26.89-232.334-60.059 0-.543.031-1.085.097-1.627 3.026-29.536 88.557-53.763 199.194-57.829 1.563-.064 3.126-.111 4.704-.159.047.159.112.319.159.478.638 1.865 1.323 3.635 1.977 5.07.859 1.912 1.722 3.235 2.453 3.426 1.373.35 14.283-.159 23.065-.749 8.782.59 21.693 1.083 23.047.733.75-.191 1.594-1.515 2.456-3.428.669-1.466 1.37-3.283 2.024-5.18a3.28 3.28 0 0 0 .128-.398c1.563.048 3.11.096 4.654.16 107.847 3.793 192.167 26.714 200.106 55.102.413 1.451.619 2.917.619 4.401z" opacity=".9"/><path fill="#ffbe55" d="M237.314 185.745c4.209-.989 6.998-2.55 8.368-3.873 1.357-1.325-3.222-12.338-4.576-14.744-1.339-2.407-2.92-7.668-4.832-12.272a7.996 7.996 0 0 0-.704-1.308c-.237-.59-.557-1.083-1.002-1.434-.638-.495-1.501-.909-2.488-1.292-1.118-7.699-5.809-34.603-16.839-34.983h-.031c-3.235-.606-6.183.048-6.183.048s-4.162 1.307-5.931 6.745c-4.589 6.997-5.846 17.868-5.429 25.151.909-.143 3.3-.461 5.85.033h.016c10.999.426 15.641 27.286 16.758 35.016.99.366 1.849.795 2.488 1.29.429.335.75.812.987 1.402.271.398.51.845.719 1.339 1.915 4.606 3.477 9.867 4.816 12.274 1.339 2.42 5.899 13.435 4.545 14.743-1.354 1.323-4.159 2.9-8.353 3.874-2.039.478-5.878 1.754-9.402 2.982-.19 2.279-.174 4.606.24 5.292.495.828 3.11 4.798 4.944 7.585 2.245 1.244 3.923 2.629 4.352 4.113.51 1.704 1.13 3.745 1.865 6.169h.016c2.662-.162 5.339-.321 8.032-.464.878-.048 1.771-.081 2.662-.129 1.192-18.299-2.042-30.809-4.819-37.887.638-.318 1.195-.654 1.61-1.02 0 0-6.043-9.069-6.824-10.359-.414-.685-.414-2.997-.224-5.292 3.507-1.228 7.345-2.52 9.369-2.999zm-4.847-13.468a155.543 155.543 0 0 1 2.232 5.356c-2.547.892-3.599 1.387-4.492 1.849.7-2.216 1.528-4.878 2.26-7.205zM187.634 187.142c-.94 1.29-1.563 2.774-1.961 4.256-.495 1.737-.701 3.443-.794 4.751-.096-.048-.193-.112-.305-.16a2.301 2.301 0 0 0-1.307-.605c-.016 0-.031-.016-.047-.016-6.538-2.931-15.367-4.858-15.796-4.955-.685-1.977-.641-4.304-.514-5.801v-.016c1.485-1.77 2.824-4.544 3.536-8.879.24.159.417-.24.417-.24.128-.43 1.943-5.596 1.544-6.791-.209-.654-.623-.605-.974-.413.305-1.865.654-4.306.766-6.139.143-2.598-1.451-4.492-3.014-5.72-.685-.542-1.737-1.753-2.839-2.836-.031-.383-.097-.781-.159-1.213-1.292-1.801-2.488-4.575-3.191-8.845-.016.016-.016.048-.016.048-.271.255-.461-.223-.461-.223-.081-.191-1.834-5.627-1.42-6.822.302-.845.924-.478 1.258-.207 0-.207.016-.511.031-.861-.159-1.992-.445-3.857-.956-4.161-4.816-2.853-1.628-13.198 13.53-11.782 1.737.174 4.592 3.887 5.98 4.972 1.544 1.227 3.154 3.124 3.014 5.722-.112 1.849-.464 4.271-.766 6.152.336-.19.766-.271.987.398.402 1.195-1.417 6.36-1.544 6.791 0 0-.174.398-.414.223-.716 4.352-2.055 7.142-3.537 8.912-.124 1.482-.159 3.826.545 5.819.143.031 4.334.939 9.1 2.434-3.66 10.651-2.832 24.199-.693 26.207zM153.84 190.814v.128a313.673 313.673 0 0 0-8.206 2.489c.128-1.563.143-2.519 0-2.519h-.479c.557-.909 2.391-3.062 2.836-5.421.015-.048.031-.079.015-.128h.016s1.802-3.921 2.727-5.482c.94-1.547.14-1.754-.208-1.77-.448 0-2.646 3.793-3.571 5.404-.031-.031-.062-.047-.093-.065.844-2.087 3.088-7.699 3.281-8.241.271-.669-.51-1.132-.94-.908-.398.223-3.235 6.09-4.24 8.225l-.062-.016c.909-2.279 3.505-8.848 3.536-9.198.062-.447-.862-.733-1.118-.462-.364.385-3.536 7.062-4.523 9.151-.047 0-.097 0-.143-.017.224-.908.623-2.614.987-4.176.383-1.561.716-2.979.797-3.298.174-.797-.286-.973-.925-.574-.576.367-2.469 7.237-2.836 8.544 0 .016-.016.031-.016.031-.511 1.244-.813 4.288-1.404 3.683-.685-.687-3.203-4.382-4.206-3.983-1.006.398 1.033 2.501 1.416 3.298.271.59 1.245 2.439 2.329 3.426.464.43.336 1.227.05 1.993l-2.008.001s-.178 1.308-.464 3.252a65.443 65.443 0 0 0-4.654-1.004c1.865-1.53 3.045-3.811 3.06-6.36 0-3.428-2.139-6.36-5.18-7.665 1.908-4.576 4.091-12.643-1.697-17.344.271-.11.542-.222.813-.317 0 0 .367-.288 1.102-.605a13.183 13.183 0 0 0-.065-.766c-.062-.828-.128-1.625-.19-2.343l-.016-.017c-2.631.112-5.149-1.96-6.89-7.475-1.578-5.003-1.946-8.908-1.659-11.953-2.073-4.24 5.641-15.734 16.861-9.599 8.004 4.382 5.582 13.58 3.512 18.568 3.06 1.29 5.196 4.223 5.199 7.651 0 2.534-1.195 4.814-3.06 6.345 1.579.286 3.474.669 5.246 1.161.255.288.557.526.909.733.508.304.782 2.12.956 4.097v.048c-.016.366-.031.654-.031.876-.336-.271-.959-.638-1.261.207-.414 1.196 1.326 6.631 1.404 6.823 0 0 .193.478.464.223 0 0 .016-.015.016-.031.685 4.223 1.865 6.997 3.157 8.798v.016c.876 5.737-.544 6.566-.544 6.566zM118.026 192.734c-.526.24-.847.447-.99.542a.707.707 0 0 1-.093.064c-1.609.606-3.477 1.309-4.318 1.468a.742.742 0 0 0-.209.079c-.844.303-4.175 1.627-6.183 4.383-1.052 1.437-1.69 3.126-2.104 4.768-.859 0-1.799.048-2.805.143a9.126 9.126 0 0 0-4.782 1.883 8.584 8.584 0 0 0-1.547 1.498l-9.85.081c-.588-1.911-.542-4.111-.414-5.531v-.016c1.482-1.77 2.821-4.542 3.536-8.879.24.191.414-.238.414-.238.143-.431 1.961-5.597 1.56-6.793-.224-.652-.654-.588-.987-.414.302-1.865.67-4.304.763-6.136.159-2.598-1.451-4.494-2.998-5.72a8.865 8.865 0 0 0-2.708-1.435 29.373 29.373 0 0 0-.274-2.486c-1.289-1.803-2.484-4.592-3.188-8.848-.016.019-.016.034-.016.05-.271.255-.464-.223-.464-.223-.078-.207-1.831-5.627-1.401-6.823.19-.542.507-.574.797-.462-.289-2.056-.545-4.144-.479-4.766.159-1.785-.448-10.121 14.71-8.69a9.143 9.143 0 0 1 4.797 1.88c1.547 1.211 3.157 3.108 3.013 5.722-.112 1.849-.461 4.271-.763 6.153.336-.209.766-.271.987.398.398 1.195-1.417 6.343-1.544 6.79 0 0-.177.383-.414.223-.716 4.352-2.055 7.142-3.537 8.911-.112 1.42-.143 3.619.464 5.548l12.415-.131c.255 1.897.735 4.033 1.485 6.407 1.722 5.515 4.225 7.602 6.871 7.475v.016c.062.718.143 1.514.205 2.344.02.254.036.509.051.765zM35.972 197.084l-10.507.065s1.56-10.951 5.638-19.685c.464 3.06 2.954 12.799 4.869 19.62zM71.677 208.332v.111c-5.23 1.515-13.15 3.923-17.421 5.758-1.899-3.857-4.081-8.48-6.6-14.009a.187.187 0 0 1 .047.033c1.61.62 3.474 1.322 4.302 1.48 0 0 1.482.478 3.175 1.546.109-.271.205-.557.318-.828-2.073-1.004-5.087-2.344-8.387-3.442-.604-1.323-1.211-2.695-1.846-4.128-.881-1.929-5.457-19.35-5.457-19.35s-.828.096-1.977.224c-.383-.718-.604-1.483-.19-1.977.956-1.116 1.703-3.06 1.893-3.681.208-.655 1.357-2.218 1.342-2.999a7.406 7.406 0 0 1 1.687-.238h.031c3.238-.59 6.201.062 6.201.062s3.714 1.163 5.613 5.898c3.714 5.034 5.342 12.415 5.679 18.758 2.214-4.782 4.222-8.304 5.479-8.863a33.498 33.498 0 0 1 1.977-.83c.081.94.255 2.279.433 3.586-.29-.112-.623-.064-.816.478-.411 1.195 1.326 6.631 1.404 6.823 0 0 .193.478.464.222 0 0 .016-.015.016-.031.704 4.256 1.899 7.03 3.172 8.831.862 5.735-.539 6.566-.539 6.566z" opacity=".3"/><path fill="#0b4870" d="M218.759 257.541s-.844 9.15-1.591 18.267c2.136-.128 4.287-.257 6.441-.367.286-.017.573-.033.875-.048-2.773-6.027-5.725-17.852-5.725-17.852zm-170.443-5.436c.146-.064.305-.079.448 0 0-1.259 0-2.534.016-3.811-.081.958-.271 2.391-.464 3.811z"/><path fill="#ffbe55" d="M229.301 199.137c-1.339-2.406-2.902-7.668-4.816-12.274a7.783 7.783 0 0 0-.719-1.339c-.237-.59-.557-1.068-.987-1.402-.638-.495-1.498-.925-2.488-1.29-1.117-7.73-5.759-34.589-16.758-35.016h-.016c-2.55-.493-4.941-.176-5.85-.033-.255.048-.383.081-.383.081s-4.159 1.292-5.927 6.728c-1.242 1.88-2.232 4.049-3.014 6.343h-.016c-3.661 10.65-2.833 24.199-.694 26.207-.94 1.29-1.563 2.774-1.961 4.256 2.438-2.12 6.678-3.588 13.038-2.968 1.737.16 4.592 3.89 5.962 4.972 1.563 1.228 3.157 3.124 3.014 5.724-.112 1.848-.461 4.287-.778 6.152.352-.192.782-.271.987.398.398 1.195-1.417 6.36-1.544 6.79 0 0-.19.398-.414.224-.732 4.351-2.07 7.142-3.552 8.912-.128 1.482-.159 3.826.526 5.801.255.064 11.796 2.548 18.365 6.212-1.834-2.788-4.449-6.757-4.944-7.585-.414-.687-.43-3.014-.24-5.292 3.524-1.228 7.363-2.505 9.402-2.982 4.193-.974 6.998-2.551 8.353-3.874 1.353-1.31-3.208-12.324-4.546-14.745zm-10.915 12.339a806.542 806.542 0 0 0 2.26-7.19 145.982 145.982 0 0 1 2.232 5.339c-2.55.894-3.602 1.405-4.492 1.851zM189.33 227.802v.128c-5.451 1.58-13.835 4.131-17.932 5.982-.302.143-.623.447-1.021.876-.221-.588-.557-1.083-1.002-1.434-2.058-1.594-6.519-2.501-9.645-3.091 1.865-1.53 3.06-3.793 3.06-6.343 0-3.427-2.139-6.36-5.199-7.651 2.089-4.99 4.523-14.171-3.477-18.569-3.269-1.801-6.233-2.089-8.751-1.497.112-1.051.206-1.993.271-2.772a313.673 313.673 0 0 1 8.206-2.489v-.128s1.42-.83.542-6.567v-.016c-1.292-1.801-2.472-4.575-3.157-8.798 0 .016-.016.031-.016.031-.271.255-.464-.223-.464-.223-.078-.191-1.818-5.627-1.404-6.823.302-.845.925-.478 1.261-.207 0-.222.016-.511.031-.876v-.048c-.174-1.977-.448-3.793-.956-4.097a3.69 3.69 0 0 1-.909-.733c-3.381-3.552.38-12.369 14.455-11.018.859.081 2.008 1.052 3.122 2.137 1.102 1.083 2.154 2.294 2.839 2.836 1.563 1.228 3.157 3.123 3.014 5.72-.112 1.834-.461 4.274-.766 6.139.352-.193.766-.241.974.413.398 1.195-1.417 6.362-1.544 6.791 0 0-.178.398-.417.24-.713 4.335-2.052 7.109-3.536 8.879v.016c-.128 1.497-.171 3.824.514 5.801.43.096 9.259 2.023 15.796 4.955-.414 1.96.302 3.825 1.946 4.813.511.303.797 2.168.956 4.161-.031.35-.031.654-.047.861-.333-.271-.94-.638-1.242.207-.414 1.195 1.323 6.631 1.404 6.822 0 0 .19.478.461.223 0 0 0-.031.016-.048.704 4.273 1.899 7.045 3.175 8.846.859 5.738-.558 6.551-.558 6.551zM27.626 230.479a795.763 795.763 0 0 1-2.251-7.204c-1.13 2.519-2.245 5.356-2.245 5.356.174.062.349.128.51.174h.492c.305-.033.591-.048.909-.033-.047.176-.094.352-.143.51 1.339.512 2.074.878 2.728 1.197zm-7.818 47.135c.062-.016.128-.033.19-.064.178-.064.367-.128.542-.176a84.135 84.135 0 0 1 3.091-.971c.065-.019.112-.034.159-.05.735-.207 1.42-.398 2.073-.574a91.578 91.578 0 0 1 3.842-.971c.205-.048.383-.096.542-.128.398-.096.654-.145.732-.16.703-1.977.669-4.321.542-5.819-1.482-1.768-2.805-4.558-3.508-8.91-.24.16-.43-.223-.43-.223-.128-.447-1.93-5.595-1.532-6.79.221-.669.654-.606.99-.414-.131-.814-.274-1.739-.402-2.679-.047-.302-.078-.606-.112-.908l-.093-.766a38.712 38.712 0 0 1-.143-1.785c-.146-2.614 1.463-4.511 3.01-5.722.205-.159.414-.302.619-.447 0-.11-.015-.207-.015-.317-3.521-1.228-7.363-2.501-9.386-2.979-3.284-.766-5.694-1.896-7.238-2.995h-.016c-.735.318-1.373.669-1.883 1.051-.43.335-.763.83-.987 1.42v.016a6.35 6.35 0 0 0-.7 1.29c-1.927 4.607-3.505 9.869-4.86 12.275-1.354 2.406-5.943 13.407-4.586 14.728 1.37 1.323 4.159 2.901 8.35 3.888 2.042.493 5.868 1.784 9.374 3.01.146 1.673.178 3.379 0 4.431-.047.381-.128.685-.236.861m-6.493-16.415s1.115-2.836 2.232-5.339c.732 2.343 1.56 5.003 2.263 7.202-.893-.459-1.942-.954-4.495-1.863zm23.763-92.725s-.015-.016-.031-.047a.842.842 0 0 1-.047-.112c-.623-1.53-3.176-7.729-3.764-8.001-.685-.335-1.133-.111-.862.671.224.605 2.011 5.465 2.665 7.218-.047.016-.096.016-.143.033-1.242-1.993-5.184-8.223-5.597-8.558-.286-.224-1.146.174-1.052.59.097.35 3.446 6.55 4.626 8.718l-.05.016c-1.273-1.993-4.782-7.475-5.196-7.651-.464-.176-1.18.383-.847 1.02.274.511 3.176 5.819 4.259 7.78-.031.031-.065.047-.097.079-1.083-1.499-3.745-5.022-4.19-4.942-.336.048-1.102.367.016 1.785 1.115 1.435 3.365 5.117 3.365 5.117h.016c0 .048.016.079.031.128.732 2.279 2.805 4.192 3.459 5.037-.271.031-.445.064-.479.048-.078.015-.062.35.016.94.146-.335.305-.654.479-.973 1.227-2.503 2.693-4.768 4.399-6.472-.322-.813-.655-1.849-.976-2.424zm.981 29.488h-.016c.143.495.286.973.414 1.435-1.021-.176-3.238-.414-5.594.033h-.034c-8.813.305-13.592 14.395-15.728 23.259.688-1.642 1.308-2.998 1.691-3.683 1.354-2.407 2.914-7.666 4.825-12.274a8.26 8.26 0 0 1 .704-1.29c.24-.605.557-1.1 1.002-1.435 1.339-1.037 3.699-1.787 6.04-2.344 2.344-.542 4.688-.911 5.977-1.181.209-.064.414-.095.623-.159.062-.016.128-.033.174-.048 0 0 .464-.861.813-2.327a14.492 14.492 0 0 0-.891.014zm4.551-30.461c-.399-.112-.94.4-1.497 1.133a8.454 8.454 0 0 1 1.834-.688c-.001-.222-.097-.381-.337-.445zm6.572 32.357c-.143-.048-.302-.097-.445-.143v.031c-.016.24-.031.495-.062.749.589.255.94.479 1.052.574-.178-.398-.352-.797-.545-1.211z" opacity=".5"/><path fill="#ffbe55" d="M98.223 240.062c-.352.079-20.992 4.483-22.745 10.253-.174.621-.383 1.29-.607 1.992-.526-.191-1.052-.398-1.578-.59v-.016s-.38-.303-1.161-.637c.015-.271.031-.557.062-.828.065-.894.143-1.754.224-2.534v-.017c2.836.126 5.548-2.089 7.425-8.035 6.388-20.197-5.311-23.876-5.311-23.876s-5.962-1.337-10.488 1.311c.031-.033.062-.081.097-.112 0 0-15.161-2.9-15.189 17.024-.078 4.24-.14 8.672-.171 13.007-.112-2.296-.305-9.707-14.682-8.365a8.293 8.293 0 0 0-1.099.176l-.399.095a9.37 9.37 0 0 0-2.681 1.149c0-.11-.015-.207-.015-.317-3.521-1.228-7.363-2.501-9.386-2.979-3.284-.766-5.694-1.896-7.238-2.995 3.188-1.357 8.032-2.011 10.136-2.458.271-.062.526-.145.797-.191 0 0 .352-.669.685-1.834 1.339.511 2.073.876 2.727 1.195a795.763 795.763 0 0 1-2.251-7.204c-1.13 2.519-2.245 5.356-2.245 5.356.174.062.349.128.51.174l-10.027.051s.43-2.965 1.416-7.047c.688-1.642 1.308-2.998 1.691-3.683 1.354-2.407 2.914-7.666 4.825-12.274a8.26 8.26 0 0 1 .704-1.29c.24-.605.557-1.1 1.002-1.435 1.339-1.037 3.699-1.787 6.04-2.344 2.344-.542 4.688-.911 5.977-1.181.209-.064.414-.095.623-.159.062-.016.128-.033.174-.048 0 0 .464-.861.813-2.327-.302 0-.604 0-.89.016h-.016c-1.915-6.821-4.405-16.561-4.869-19.619.146-.335.305-.654.479-.973.112.159.174.255.19.333 0-.078-.078-.174-.19-.333 1.227-2.503 2.693-4.768 4.399-6.472.32.813.607 1.402.878 1.068.367-.462 1.289-2.168 2.182-3.331a8.454 8.454 0 0 1 1.834-.688c.015.781-1.133 2.344-1.342 2.999-.19.621-.937 2.565-1.893 3.681-.414.493-.193 1.259.19 1.977 1.149-.128 1.977-.224 1.977-.224s4.576 17.421 5.457 19.35c.635 1.434 1.242 2.805 1.846 4.128-.143-.048-.302-.097-.445-.143v.031c-.016.24-.031.495-.062.749.589.255.94.479 1.052.574 2.519 5.529 4.701 10.152 6.6 14.009 4.271-1.835 12.191-4.243 17.421-5.758v-.111s1.401-.831.539-6.567c-1.273-1.801-2.469-4.575-3.172-8.831 0 .016-.016.031-.016.031-.271.255-.464-.222-.464-.222-.078-.191-1.815-5.627-1.404-6.823.193-.542.526-.59.816-.478-.178-1.307-.352-2.646-.433-3.586-.047-.526-.062-.94-.047-1.163.174-1.785-.417-10.123 14.741-8.659a8.388 8.388 0 0 1 2.073.447 8.853 8.853 0 0 1 2.708 1.435c1.547 1.227 3.157 3.122 2.998 5.72-.093 1.832-.461 4.271-.763 6.136.333-.174.763-.238.987.414.402 1.196-1.416 6.362-1.56 6.793 0 0-.174.43-.414.238-.716 4.337-2.055 7.109-3.536 8.879v.016c-.128 1.419-.174 3.619.414 5.531l9.85-.081c-.906 1.1-1.575 2.503-1.479 4.209.112 1.848.461 4.287.766 6.152-.352-.192-.781-.271-1.005.398-.38 1.195 1.404 6.36 1.547 6.79 0 0 .174.398.414.24.704 4.352 2.042 7.142 3.524 8.908.114 1.483.148 3.826-.537 5.803z" opacity=".5"/><path fill="#ffbe55" d="M98.55 288.279c-.062.016-.318.11-.75.238m85.419-93.15c.016 0 .031.016.047.016.495.064.959.271 1.307.605.112.048.209.112.305.16.093-1.307.299-3.014.794-4.751-1.401 1.196-2.197 2.615-2.453 3.97z"/><path fill="#ffbe55" d="M256.914 269.707c-.016-.096-.031-.191-.065-.286-.016-.16-.047-.303-.078-.447-.177-.861-.286-1.42-.286-1.42s-2.824.398-6.457.797h-.062c-2.12.224-4.495.462-6.743.623-4.623.302-8.72.319-8.975-.654a518.866 518.866 0 0 0-6.743-24.42h-.016c-.732-2.422-1.354-4.463-1.865-6.169-.43-1.482-2.104-2.869-4.349-4.113-6.569-3.666-18.109-6.152-18.365-6.215-.685-1.977-.654-4.32-.526-5.801 1.485-1.77 2.824-4.559 3.555-8.911.224.176.414-.223.414-.223.128-.43 1.946-5.594 1.547-6.79-.209-.669-.638-.59-.99-.398.321-1.865.669-4.304.781-6.153.128-2.598-1.466-4.496-3.01-5.722-1.373-1.083-4.24-4.815-5.977-4.973-6.36-.621-10.6.845-13.023 2.965-.51 1.737-.704 3.443-.797 4.749-.096-.047-.193-.11-.321-.159-.333-.334-.797-.542-1.307-.605-.016 0-.016-.017-.031-.017-.414 1.961.302 3.826 1.946 4.815.51.303.797 2.168.956 4.161-.031.35-.031.652-.047.861-.336-.272-.94-.638-1.245.207-.414 1.195 1.323 6.631 1.404 6.821 0 0 .19.479.461.224 0 0 0-.033.016-.048.704 4.271 1.899 7.045 3.172 8.846.862 5.739-.557 6.552-.557 6.552v.128c-5.451 1.578-13.835 4.128-17.932 5.977-.302.143-.623.447-1.021.876-.221-.59-.557-1.083-1.002-1.435-2.058-1.594-6.519-2.502-9.645-3.091 1.865-1.53 3.06-3.793 3.06-6.345 0-3.426-2.135-6.359-5.196-7.651 2.089-4.989 4.527-14.17-3.474-18.553-3.285-1.801-6.233-2.104-8.751-1.499.112-1.052.209-1.992.271-2.774.128-1.561.143-2.517 0-2.517h-.476c.557-.909 2.372-3.062 2.821-5.42.016-.064.031-.079.016-.128h.016s1.803-3.921 2.727-5.484c.94-1.561.143-1.753-.208-1.768-.445 0-2.646 3.794-3.571 5.403-.031-.031-.062-.048-.096-.079.847-2.072 3.094-7.699 3.284-8.225.271-.669-.511-1.132-.94-.909-.399.224-3.235 6.089-4.24 8.225l-.062-.016c.906-2.279 3.505-8.846 3.537-9.196.065-.447-.859-.733-1.115-.462-.367.381-3.54 7.061-4.527 9.148-.05 0-.096 0-.143-.016.221-.909.62-2.614.987-4.176.383-1.561.719-2.981.797-3.298.174-.797-.286-.973-.924-.574-.573.366-2.469 7.236-2.836 8.544 0 .016-.016.031-.016.031-.511 1.244-.813 4.289-1.404 3.681-.685-.685-3.203-4.383-4.209-3.985-1.003.398 1.037 2.503 1.42 3.3.271.59 1.245 2.439 2.344 3.428.461.43.318 1.227.047 1.992h-2.008s-.174 1.306-.461 3.252c-.735 5.244-2.17 15.143-2.615 16.624-5.308 17.168-8.879 27.145-11.715 32.995-.448-.143-.894-.286-1.339-.431l-1.339-.43-1.818-.574c-.735-.222-1.466-.445-2.167-.669-.735-.207-1.435-.43-2.12-.621-.526-.16-1.021-.304-1.5-.447v-.128s-1.401-.828-.526-6.55c1.292-1.802 2.487-4.575 3.203-8.83l.019.031c.271.255.461-.207.461-.207.081-.207 1.834-5.627 1.42-6.823-.193-.542-.511-.59-.813-.478.078-.542.159-1.068.221-1.594a38.17 38.17 0 0 0 .24-2.12c.016-.159.031-.319.031-.447a3.54 3.54 0 0 0 0-.59c-.143-1.673.367-9.038-11.905-8.862-.862 0-1.803.048-2.805.143a9.133 9.133 0 0 0-4.782 1.882 8.387 8.387 0 0 0-1.547 1.497c-.909 1.1-1.578 2.503-1.482 4.207.112 1.849.461 4.288.766 6.153-.352-.191-.781-.271-1.006.398-.383 1.196 1.404 6.36 1.547 6.79 0 0 .174.398.414.24.701 4.35 2.039 7.14 3.521 8.91.112 1.482.143 3.826-.542 5.801-.349.081-20.992 4.48-22.745 10.25-.174.621-.383 1.29-.607 1.992-.526-.191-1.052-.398-1.578-.59v-.016s-.38-.303-1.161-.638c.016-.271.031-.542.062-.812.065-.909.143-1.77.224-2.534v-.033c2.836.128 5.548-2.087 7.428-8.033 6.391-20.195-5.308-23.877-5.308-23.877s-5.962-1.323-10.488 1.323c.031-.033.062-.081.096-.112 0 0-15.161-2.902-15.192 17.023-.078 4.24-.143 8.672-.174 13.007-.112-2.294-.302-9.707-14.682-8.368a8.998 8.998 0 0 0-1.099.176l-.398.095c-.94.24-1.849.623-2.677 1.147a17.23 17.23 0 0 0-.623.447c-1.544 1.211-3.154 3.108-3.01 5.722.031.559.078 1.149.143 1.785l.093.766c.034.302.065.605.112.908.128.942.271 1.865.399 2.679-.333-.191-.766-.255-.987.414-.399 1.195 1.401 6.343 1.529 6.79 0 0 .193.383.433.224.701 4.351 2.024 7.14 3.505 8.91.128 1.497.174 3.842-.542 5.817-.081.017-.336.064-.735.16-.143.031-.333.08-.542.128-.925.207-2.263.542-3.842.971a165.3 165.3 0 0 0-2.07.574c-.05.016-.081.031-.143.048-.99.286-2.042.621-3.11.971-2.248 6.552-2.805 31.003-2.852 51.852.221-.462.476-.925.781-1.387 3.026-29.536 88.557-53.763 199.194-57.829.592-6.838 1.102-12.464 1.102-12.464s1.61 6.486 3.602 12.305c.047.159.112.319.159.478.638 1.865 1.323 3.635 1.977 5.07.859 1.912 1.722 3.235 2.453 3.426 1.373.35 14.283-.159 23.065-.749 4.751-.335 8.337-.685 8.337-.973-.052-.206-.896-4.653-1.438-7.394zM48.761 252.11c-.143-.079-.302-.064-.448 0 .193-1.418.383-2.853.464-3.809-.016 1.274-.016 2.549-.016 3.809z" opacity=".8"/><path fill="#ffbe55" d="M136.388 194.181c-.732 5.244-2.164 15.142-2.612 16.624-5.302 17.169-8.869 27.147-11.709 32.997l-1.339-.428c-.445-.145-.893-.288-1.339-.431l-1.818-.574c-.732-.223-1.466-.445-2.167-.67-.735-.207-1.435-.428-2.12-.619-.526-.159-1.021-.304-1.497-.447v-.128s-1.404-.828-.529-6.55c1.292-1.801 2.487-4.576 3.203-8.832l.016.031c.271.255.464-.207.464-.207.078-.207 1.83-5.627 1.416-6.823-.193-.542-.511-.59-.813-.478.078-.542.159-1.068.221-1.594a38.17 38.17 0 0 0 .24-2.12 4.84 4.84 0 0 0 .031-.445 3.538 3.538 0 0 0 0-.59c-.143-1.675.367-9.038-11.908-8.86.414-1.642 1.052-3.331 2.104-4.768 2.008-2.757 5.339-4.08 6.183-4.383a.675.675 0 0 1 .209-.079c.84-.159 2.708-.862 4.318-1.468 0 0 .031-.016.093-.064.143-.095.464-.302.99-.542-.016-.255-.031-.511-.05-.764-.062-.83-.143-1.627-.205-2.344v-.016c-2.646.128-5.149-1.96-6.871-7.475-.75-2.374-1.23-4.51-1.485-6.407-.286-2.136-.317-3.969-.159-5.579-2.058-4.271 5.672-15.701 16.861-9.551a11.88 11.88 0 0 1 1.799 1.211c5.787 4.701 3.605 12.767 1.697 17.344 3.042 1.304 5.18 4.237 5.18 7.665-.016 2.55-1.195 4.83-3.06 6.36 1.405.255 3.062.59 4.656 1.004z" opacity=".5"/><g opacity=".3"><path fill="#ffbe55" d="M89.822 103.886h45.638v24.927H89.822z" transform="rotate(-33.613 112.631 116.34)"/><path fill="#ffbe55" d="M107.404 136.594h2.298v25.504h-2.298z" transform="rotate(-33.561 108.54 149.34)"/></g><path fill="#ffbe55" d="M272.041 188.741c.193 2.296.193 4.608-.224 5.292-.778 1.29-6.821 10.361-6.821 10.361.414.366.971.702 1.609 1.02-2.774 7.078-6.009 19.59-4.813 37.889.894.048 1.784.079 2.662.128 2.693.143 5.37.302 8.035.462h.016c.732-2.424 1.354-4.464 1.865-6.169.43-1.484 2.105-2.869 4.349-4.113 1.834-2.789 4.449-6.759 4.944-7.587.414-.686.43-3.014.237-5.293-3.521-1.228-7.363-2.503-9.402-2.981-4.193-.973-6.998-2.55-8.353-3.873-1.354-1.308 3.204-12.322 4.542-14.744 1.339-2.406 2.901-7.668 4.813-12.274.209-.493.448-.94.719-1.339.237-.59.557-1.068.987-1.403.638-.495 1.497-.925 2.487-1.292 1.115-7.73 5.753-34.589 16.752-35.019h.015c2.55-.493 4.941-.176 5.85-.033.414-7.283-.844-18.154-5.436-25.151-1.768-5.436-5.931-6.743-5.931-6.743s-2.948-.654-6.183-.047h-.031c-11.03.381-15.719 27.287-16.833 34.986-.987.383-1.849.797-2.487 1.292-.445.35-.766.844-1.003 1.434a8.506 8.506 0 0 0-.703 1.307c-1.912 4.606-3.49 9.867-4.829 12.274-1.354 2.406-5.931 13.421-4.573 14.744 1.37 1.323 4.159 2.884 8.368 3.873 2.025.48 5.867 1.772 9.372 2.999zm-2.263-9.26c-.893-.463-1.946-.957-4.495-1.849 0 0 1.118-2.838 2.232-5.356.735 2.326 1.563 4.988 2.263 7.205zM312.354 187.131c.94 1.29 1.56 2.774 1.958 4.256.495 1.737.704 3.443.797 4.751.096-.048.193-.112.305-.16a2.309 2.309 0 0 1 1.307-.606c.016 0 .031-.016.047-.016 6.535-2.932 15.367-4.861 15.796-4.958.685-1.977.638-4.304.51-5.801v-.016c-1.485-1.77-2.823-4.544-3.54-8.879-.24.159-.414-.24-.414-.24-.128-.43-1.946-5.594-1.547-6.79.208-.654.623-.605.974-.414-.305-1.865-.654-4.304-.766-6.138-.143-2.598 1.451-4.494 3.01-5.722.688-.542 1.74-1.753 2.839-2.836.031-.383.096-.781.159-1.213 1.292-1.801 2.487-4.575 3.188-8.846.016.015.016.048.016.048.271.255.464-.222.464-.222.078-.191 1.831-5.627 1.417-6.823-.302-.845-.925-.478-1.258-.207 0-.207-.016-.51-.031-.861.159-1.992.445-3.857.956-4.161 4.813-2.853 1.625-13.198-13.533-11.779-1.737.174-4.592 3.888-5.977 4.973-1.547 1.227-3.157 3.124-3.014 5.722.112 1.849.464 4.271.766 6.152-.336-.19-.766-.271-.987.398-.398 1.195 1.417 6.36 1.544 6.792 0 0 .178.398.414.222.719 4.352 2.058 7.142 3.54 8.91.128 1.482.159 3.826-.542 5.818-.143.031-4.337.94-9.103 2.438 3.669 10.652 2.841 24.2.705 26.208zM346.145 190.797v.128a322.17 322.17 0 0 1 8.21 2.487c-.128-1.563-.143-2.519 0-2.519h.476c-.557-.909-2.391-3.06-2.836-5.42-.016-.048-.031-.079-.016-.128h-.015s-1.803-3.921-2.727-5.482c-.94-1.547-.143-1.754.209-1.77.445 0 2.646 3.793 3.571 5.403.031-.031.062-.047.093-.064-.844-2.087-3.091-7.699-3.281-8.241-.271-.669.511-1.132.94-.907.398.222 3.234 6.088 4.24 8.223l.062-.016c-.909-2.279-3.505-8.846-3.537-9.196-.065-.447.859-.733 1.115-.462.367.383 3.54 7.061 4.527 9.15.047 0 .096 0 .143-.017-.224-.907-.623-2.613-.987-4.176-.383-1.561-.719-2.979-.797-3.298-.177-.797.286-.973.925-.574.573.367 2.469 7.237 2.836 8.544 0 .016.015.031.015.031.511 1.244.813 4.288 1.404 3.683.685-.687 3.204-4.383 4.206-3.985 1.005.398-1.034 2.501-1.417 3.298-.271.59-1.245 2.439-2.329 3.428-.461.43-.333 1.227-.047 1.992h2.008s.174 1.308.461 3.252a65.802 65.802 0 0 1 4.654-1.004c-1.865-1.53-3.042-3.811-3.06-6.36 0-3.428 2.139-6.36 5.18-7.666-1.911-4.575-4.094-12.641 1.69-17.343-.271-.111-.542-.223-.812-.318 0 0-.367-.288-1.099-.606.016-.255.031-.511.062-.766.065-.828.128-1.625.193-2.343l.016-.017c2.631.112 5.149-1.96 6.886-7.475 1.578-5.005 1.943-8.91 1.656-11.955 2.073-4.24-5.641-15.732-16.864-9.596-8.001 4.383-5.579 13.581-3.505 18.57-3.06 1.29-5.196 4.225-5.196 7.651 0 2.534 1.195 4.814 3.06 6.345-1.578.286-3.474.669-5.246 1.163a3.69 3.69 0 0 1-.909.733c-.507.303-.781 2.12-.956 4.097v.048c.016.366.031.654.031.876.336-.271.959-.638 1.261.207.414 1.196-1.323 6.631-1.404 6.822 0 0-.19.478-.461.223 0 0-.016-.016-.016-.031-.685 4.223-1.865 6.997-3.157 8.798v.016c-.876 5.739.544 6.567.544 6.567zM381.962 192.71a6.856 6.856 0 0 1 1.084.606c1.609.605 3.474 1.308 4.318 1.466a.742.742 0 0 1 .209.079c.844.303 4.175 1.627 6.183 4.383 1.052 1.435 1.69 3.124 2.104 4.766.862 0 1.803.048 2.805.143a9.133 9.133 0 0 1 4.782 1.882 8.418 8.418 0 0 1 1.547 1.497l9.85.079c.592-1.911.542-4.111.414-5.531v-.016c-1.482-1.77-2.82-4.542-3.536-8.879-.24.191-.414-.238-.414-.238-.143-.431-1.961-5.596-1.563-6.792.224-.652.654-.588.987-.414-.302-1.865-.669-4.304-.763-6.136-.162-2.598 1.448-4.495 2.995-5.722a8.853 8.853 0 0 1 2.708-1.435c.05-.702.128-1.53.274-2.486 1.289-1.802 2.484-4.592 3.188-8.847.016.017.016.033.016.048.271.255.461-.223.461-.223.081-.207 1.834-5.627 1.404-6.823-.193-.542-.511-.574-.797-.462.286-2.056.542-4.144.476-4.766-.159-1.785.448-10.121-14.71-8.687a9.145 9.145 0 0 0-4.801 1.882c-1.544 1.211-3.154 3.109-3.01 5.722.112 1.849.461 4.271.763 6.153-.333-.209-.763-.271-.987.398-.399 1.195 1.42 6.343 1.547 6.79 0 0 .174.383.414.223.716 4.352 2.055 7.142 3.537 8.91.112 1.419.146 3.619-.461 5.548l-12.418-.128c-.252 1.898-.732 4.033-1.482 6.407-1.722 5.515-4.221 7.604-6.868 7.476v.016c-.065.718-.143 1.515-.208 2.344l-.048.767zM464.016 197.045l10.507.064s-1.563-10.951-5.644-19.685c-.461 3.061-2.949 12.8-4.863 19.621zM428.314 208.299v.111c5.227 1.514 13.15 3.921 17.421 5.755 1.896-3.857 4.082-8.48 6.597-14.011-.031.016-.047.033-.047.033-1.61.621-3.474 1.323-4.302 1.482 0 0-1.482.478-3.172 1.546-.112-.271-.209-.557-.321-.828 2.073-1.004 5.087-2.344 8.387-3.443.604-1.323 1.211-2.694 1.846-4.128.878-1.929 5.454-19.352 5.454-19.352s.828.096 1.974.224c.383-.718.607-1.484.193-1.977-.956-1.116-1.706-3.06-1.896-3.681-.209-.654-1.357-2.216-1.342-2.998a7.414 7.414 0 0 0-1.687-.238h-.031c-3.238-.59-6.201.064-6.201.064s-3.714 1.163-5.61 5.898c-3.714 5.036-5.342 12.417-5.675 18.76-2.217-4.782-4.225-8.304-5.482-8.862a33.498 33.498 0 0 0-1.977-.83c-.081.94-.255 2.279-.433 3.586.289-.112.623-.064.816.478.414 1.195-1.323 6.631-1.404 6.823 0 0-.19.478-.461.222 0 0-.019-.015-.019-.031-.701 4.256-1.896 7.03-3.169 8.831-.863 5.737.541 6.566.541 6.566z" opacity=".3"/><path fill="#0b4870" d="M275.516 275.388c.305.016.592.031.878.048 2.151.11 4.302.238 6.438.366-.747-9.117-1.594-18.267-1.594-18.267s-2.949 11.828-5.722 17.853zm175.701-27.129c.016 1.276.016 2.551.016 3.811.143-.079.302-.064.448 0-.193-1.42-.383-2.854-.464-3.811z"/><path fill="#ffbe55" d="M266.145 213.878c1.354 1.323 4.159 2.9 8.353 3.873 2.039.478 5.881 1.753 9.402 2.981.193 2.279.177 4.606-.237 5.293-.495.828-3.11 4.797-4.944 7.587 6.569-3.666 18.109-6.153 18.365-6.217.685-1.975.654-4.319.526-5.801-1.485-1.77-2.823-4.559-3.555-8.91-.224.174-.414-.224-.414-.224-.128-.43-1.946-5.594-1.547-6.79.209-.669.638-.59.99-.398-.321-1.865-.669-4.304-.781-6.152-.143-2.6 1.451-4.495 3.01-5.724 1.373-1.083 4.225-4.813 5.962-4.973 6.36-.621 10.6.845 13.038 2.965-.398-1.482-1.018-2.965-1.958-4.256 2.136-2.008 2.964-15.557-.704-26.205h-.015c-.781-2.294-1.768-4.463-3.01-6.343-1.771-5.436-5.931-6.726-5.931-6.726s-.128-.033-.383-.081c-.909-.143-3.3-.461-5.85.033h-.015c-10.999.43-15.638 27.289-16.752 35.019-.99.367-1.849.797-2.487 1.292-.43.335-.75.813-.987 1.403a7.71 7.71 0 0 0-.719 1.339c-1.911 4.606-3.474 9.867-4.813 12.274-1.34 2.419-5.898 13.434-4.544 14.741zm10.965-4.256s1.118-2.838 2.232-5.341a961.002 961.002 0 0 0 2.263 7.19c-.893-.446-1.942-.957-4.495-1.849zM310.664 227.792v.128c5.451 1.578 13.835 4.128 17.932 5.977.302.143.623.447 1.021.876.221-.588.557-1.083 1.003-1.434 2.058-1.594 6.519-2.503 9.645-3.093-1.865-1.53-3.06-3.794-3.06-6.343 0-3.428 2.136-6.36 5.196-7.651-2.089-4.99-4.527-14.171 3.474-18.57 3.269-1.801 6.233-2.089 8.751-1.499a109.93 109.93 0 0 1-.271-2.772 313.086 313.086 0 0 0-8.21-2.487v-.128s-1.42-.828-.542-6.567v-.016c1.292-1.801 2.472-4.575 3.157-8.798 0 .016.016.031.016.031.271.255.461-.223.461-.223.081-.191 1.818-5.627 1.404-6.822-.302-.845-.925-.478-1.261-.207 0-.223-.016-.51-.031-.876v-.048c.174-1.977.448-3.794.956-4.097a3.69 3.69 0 0 0 .909-.733c3.381-3.554-.383-12.368-14.458-11.014-.859.081-2.008 1.052-3.122 2.137-1.099 1.083-2.151 2.294-2.839 2.836-1.56 1.228-3.154 3.124-3.01 5.722.112 1.834.461 4.273.766 6.138-.352-.191-.766-.24-.974.414-.398 1.196 1.419 6.36 1.547 6.79 0 0 .174.398.414.24.716 4.335 2.055 7.109 3.54 8.879v.016c.128 1.497.174 3.825-.51 5.801-.43.096-9.262 2.025-15.796 4.958.414 1.96-.302 3.825-1.946 4.813-.511.303-.797 2.168-.956 4.161.031.35.031.654.047.861.336-.271.94-.638 1.245.207.414 1.195-1.323 6.631-1.404 6.823 0 0-.19.478-.461.223 0 0 0-.031-.016-.048-.704 4.273-1.899 7.047-3.172 8.848-.865 5.735.555 6.547.555 6.547zM452.332 200.154c.112-.095.464-.319 1.052-.574a12.73 12.73 0 0 1-.062-.749v-.031c-.143.047-.302.095-.445.143-.193.414-.368.812-.545 1.211zm6.774-33.123c.638.16 1.245.383 1.834.687-.557-.733-1.099-1.244-1.497-1.132-.24.064-.337.223-.337.445zM464 197.045c-.286-.016-.588-.016-.89-.016.349 1.466.813 2.327.813 2.327.047.016.112.033.174.048.208.064.414.095.623.159 1.289.271 3.633.638 5.977 1.18 2.341.557 4.701 1.307 6.04 2.343.448.335.766.83 1.006 1.435.255.383.492.813.701 1.29 1.911 4.607 3.474 9.867 4.829 12.274.383.685 1.005 2.041 1.69 3.683-2.136-8.863-6.918-22.953-15.731-23.257h-.034c-2.357-.445-4.573-.207-5.594-.031.128-.462.271-.94.414-1.435H464zm11.285-30.89c1.118-1.418.352-1.737.016-1.785-.445-.079-3.107 3.443-4.19 4.942-.031-.033-.065-.048-.097-.079 1.083-1.961 3.985-7.269 4.256-7.78.336-.637-.383-1.195-.844-1.02-.414.176-3.922 5.658-5.196 7.651l-.05-.016c1.18-2.168 4.527-8.368 4.623-8.718.097-.416-.766-.814-1.052-.59-.414.335-4.352 6.567-5.594 8.56-.047-.017-.097-.017-.143-.033.654-1.753 2.438-6.614 2.662-7.22.271-.781-.174-1.006-.859-.671-.591.272-3.141 6.472-3.764 8.003a.842.842 0 0 1-.047.112.225.225 0 0 1-.031.047c-.321.574-.654 1.611-.974 2.424 1.706 1.704 3.172 3.969 4.399 6.471.177.319.336.638.479.973.081-.59.096-.925.016-.94-.031.015-.206-.017-.476-.048.651-.845 2.724-2.758 3.459-5.037.016-.048.031-.08.031-.128h.015c-.001-.002 2.247-3.683 3.361-5.118zm6.983 110.541c-.414-.687-.43-3.014-.24-5.292 3.505-1.228 7.332-2.519 9.374-3.012 4.19-.988 6.98-2.567 8.35-3.89 1.357-1.323-3.235-12.322-4.589-14.728-1.354-2.406-2.933-7.666-4.863-12.274a6.203 6.203 0 0 0-.7-1.29v-.016c-.224-.59-.557-1.085-.987-1.42-.511-.381-1.149-.733-1.883-1.051h-.016c-1.544 1.099-3.951 2.231-7.235 2.997-2.024.478-5.865 1.753-9.389 2.981 0 .111-.016.207-.016.318.208.145.414.288.623.447 1.544 1.211 3.154 3.109 3.01 5.722a38.492 38.492 0 0 1-.143 1.785l-.093.766c-.034.302-.065.605-.112.908-.128.94-.271 1.865-.398 2.679.333-.192.766-.255.987.414.398 1.195-1.401 6.343-1.528 6.79 0 0-.193.383-.433.222-.701 4.352-2.024 7.142-3.505 8.912-.128 1.497-.159 3.84.542 5.817.081.016.336.064.735.16.159.031.333.079.542.128.925.207 2.263.542 3.842.971.654.16 1.354.367 2.07.574.05.016.096.031.159.048 1.164.35 2.391.733 3.636 1.147.062.031.128.048.19.064m4.063-15.431c.7-2.199 1.528-4.861 2.263-7.204a154.132 154.132 0 0 1 2.232 5.339c-2.553.909-3.602 1.404-4.495 1.865zm-9.165-32.899c-.05-.159-.097-.335-.143-.51.318-.016.604 0 .909.033h.492c.162-.048.336-.112.51-.176 0 0-1.115-2.836-2.248-5.354a711.594 711.594 0 0 1-2.248 7.204c.654-.32 1.389-.686 2.728-1.197z" opacity=".5"/><path fill="#ffbe55" d="M401.774 240.035c.349.079 20.992 4.478 22.745 10.249.174.621.383 1.29.607 1.992.526-.191 1.052-.398 1.578-.59v-.016s.38-.303 1.161-.638c-.016-.271-.031-.557-.062-.828a82.956 82.956 0 0 0-.224-2.534v-.017c-2.836.128-5.548-2.087-7.428-8.034-6.391-20.195 5.308-23.876 5.308-23.876s5.962-1.339 10.488 1.307c-.031-.033-.062-.081-.096-.112 0 0 15.161-2.901 15.192 17.023.078 4.24.143 8.672.174 13.007.112-2.296.302-9.707 14.682-8.368.364.031.732.095 1.099.176l.398.095c.94.24 1.849.621 2.677 1.147 0-.111.016-.207.016-.318 3.524-1.228 7.366-2.503 9.389-2.981 3.284-.766 5.691-1.897 7.235-2.997-3.188-1.356-8.032-2.01-10.137-2.455-.271-.064-.526-.145-.797-.191 0 0-.352-.669-.685-1.834-1.339.511-2.073.876-2.727 1.195a711.594 711.594 0 0 0 2.248-7.204 140.47 140.47 0 0 1 2.248 5.354 8.911 8.911 0 0 1-.51.176l10.027.048s-.43-2.965-1.419-7.045c-.685-1.642-1.308-2.998-1.69-3.683-1.354-2.406-2.917-7.666-4.829-12.274a8.254 8.254 0 0 0-.701-1.29c-.24-.605-.557-1.1-1.006-1.435-1.339-1.035-3.699-1.785-6.04-2.343-2.344-.542-4.689-.909-5.977-1.18-.209-.064-.414-.095-.623-.159-.062-.016-.128-.033-.174-.048 0 0-.464-.861-.813-2.327.302 0 .604 0 .89.016h.016c1.915-6.821 4.402-16.561 4.863-19.621a10.442 10.442 0 0 0-.479-.973c-.109.16-.174.255-.19.335 0-.079.081-.174.19-.335-1.227-2.501-2.693-4.766-4.399-6.471-.318.813-.604 1.402-.875 1.068-.367-.462-1.292-2.168-2.185-3.331a8.47 8.47 0 0 0-1.834-.687c-.016.782 1.133 2.344 1.342 2.998.19.621.94 2.565 1.896 3.681.414.493.19 1.259-.193 1.977-1.146-.128-1.974-.224-1.974-.224s-4.576 17.423-5.454 19.352c-.635 1.434-1.242 2.805-1.846 4.128.143-.048.302-.096.445-.143v.031c.016.24.031.495.062.749-.589.255-.94.48-1.052.574-2.515 5.531-4.701 10.154-6.597 14.011-4.271-1.834-12.194-4.24-17.421-5.755v-.111s-1.404-.83-.542-6.567c1.273-1.801 2.469-4.575 3.169-8.831 0 .016.019.031.019.031.271.255.461-.222.461-.222.081-.191 1.818-5.627 1.404-6.823-.193-.542-.526-.59-.816-.478.177-1.308.352-2.646.433-3.586.047-.526.062-.94.047-1.163-.174-1.785.414-10.122-14.744-8.656a8.447 8.447 0 0 0-2.073.447 8.853 8.853 0 0 0-2.708 1.435c-1.547 1.227-3.157 3.124-2.995 5.722.093 1.832.461 4.271.763 6.136-.333-.174-.763-.238-.987.414-.398 1.195 1.419 6.36 1.563 6.792 0 0 .174.43.414.238.716 4.337 2.055 7.109 3.536 8.879v.016c.128 1.419.178 3.619-.414 5.531l-9.85-.079c.909 1.1 1.578 2.503 1.482 4.209-.112 1.848-.461 4.287-.766 6.152.352-.191.781-.271 1.006.398.383 1.195-1.404 6.36-1.547 6.79 0 0-.174.398-.414.24-.701 4.352-2.039 7.142-3.521 8.91-.113 1.485-.144 3.827.541 5.804z" opacity=".5"/><path fill="#ffbe55" d="M401.453 288.252c.224 1.211.399 2.279.545 3.076.062-.925.125-1.849.206-2.838-.43-.127-.685-.222-.751-.238zm-87.141-96.865c.495 1.737.704 3.443.797 4.751.096-.048.193-.112.305-.16a2.309 2.309 0 0 1 1.307-.606c.016 0 .031-.016.047-.016-.255-1.355-1.052-2.773-2.456-3.969z"/><path fill="#ffbe55" d="M363.597 194.161c.735 5.244 2.17 15.143 2.615 16.624 5.308 17.168 8.879 27.145 11.715 32.995l1.339-.43 1.339-.431 1.818-.575c.735-.222 1.466-.445 2.167-.669.735-.207 1.435-.429 2.12-.621.526-.159 1.021-.303 1.501-.447v-.128s1.401-.828.526-6.55c-1.292-1.801-2.487-4.575-3.203-8.831l-.019.031c-.271.255-.461-.207-.461-.207-.081-.207-1.834-5.627-1.419-6.822.193-.542.51-.59.813-.478-.078-.542-.159-1.068-.221-1.594a38.17 38.17 0 0 1-.24-2.12 4.84 4.84 0 0 1-.031-.445 3.538 3.538 0 0 1 0-.59c.143-1.675-.367-9.038 11.905-8.863-.414-1.642-1.052-3.331-2.104-4.766-2.008-2.757-5.339-4.08-6.183-4.383a.675.675 0 0 0-.209-.079c-.844-.159-2.709-.861-4.318-1.466 0 0-.031-.016-.097-.064a6.856 6.856 0 0 0-.987-.542l.047-.764c.065-.83.143-1.627.208-2.344v-.016c2.646.128 5.146-1.961 6.868-7.476.75-2.374 1.23-4.509 1.482-6.407.289-2.136.321-3.969.162-5.579 2.055-4.271-5.676-15.7-16.864-9.548-.669.367-1.276.781-1.803 1.211-5.784 4.702-3.602 12.769-1.69 17.343-3.041 1.306-5.18 4.239-5.18 7.666.019 2.55 1.196 4.83 3.06 6.36a66.199 66.199 0 0 0-4.656 1.005z" opacity=".5"/><path fill="#ffbe55" d="M479.062 277.756c.112-.031.591-.079 1.373-.143-.081-.033-.162-.048-.224-.079a1.157 1.157 0 0 1-.208-.064 89.606 89.606 0 0 0-3.618-1.149c-.062-.016-.128-.031-.174-.047-.735-.207-1.404-.398-2.074-.574a95.467 95.467 0 0 0-3.842-.973c-.205-.047-.383-.095-.542-.126-.398-.096-.654-.145-.732-.16-.704-1.977-.669-4.32-.542-5.817 1.482-1.77 2.805-4.559 3.505-8.911.24.16.43-.223.43-.223.128-.447 1.93-5.594 1.532-6.79-.224-.669-.654-.606-.99-.414.128-.814.271-1.739.398-2.679.05-.302.081-.606.112-.908.031-.255.065-.511.097-.766.062-.638.112-1.227.143-1.785.143-2.614-1.466-4.511-3.014-5.722-.205-.159-.414-.303-.619-.447a9.251 9.251 0 0 0-2.681-1.147c-.124-.033-.271-.064-.398-.095a8.293 8.293 0 0 0-1.099-.176c-14.377-1.339-14.567 6.072-14.679 8.368a1192.75 1192.75 0 0 0-.177-13.007c-.031-19.924-15.189-17.023-15.189-17.023.031.031.062.079.096.111-1.992-1.178-4.29-1.561-6.201-1.625l9.389-14.139-38.015-25.248-13.788 20.77 11.061 7.347a24.248 24.248 0 0 0-2.534-.128c-12.272-.174-11.765 7.19-11.908 8.863a3.538 3.538 0 0 0 0 .59c0 .128.016.286.034.445.047.574.124 1.323.237 2.12.065.526.143 1.052.224 1.594-.302-.11-.623-.064-.813.478-.414 1.196 1.339 6.616 1.419 6.823 0 0 .19.462.461.207l.016-.031c.719 4.256 1.915 7.03 3.203 8.831.878 5.722-.526 6.55-.526 6.55v.128c-.476.145-.971.288-1.497.447-.685.191-1.385.414-2.12.621-.701.224-1.435.447-2.167.671l-1.818.573c-.445.143-.893.286-1.339.431l-1.339.43c-2.836-5.85-6.407-15.827-11.715-32.995-.448-1.482-1.88-11.38-2.615-16.624-.302-1.944-.461-3.252-.461-3.252h-2.027c-.271-.764-.414-1.561.065-1.993 1.068-.988 2.039-2.837 2.31-3.428.383-.797 2.422-2.9 1.42-3.298-1.006-.398-3.524 3.298-4.209 3.985-.589.606-.894-2.439-1.401-3.683 0 0-.016-.016-.016-.031-.367-1.308-2.266-8.177-2.839-8.544-.638-.398-1.099-.223-.924.574.081.319.414 1.737.797 3.3.367 1.561.766 3.267.99 4.175-.05.017-.097.017-.143.017-.99-2.089-4.162-8.767-4.53-9.15-.252-.271-1.177.016-1.115.462.031.35 2.631 6.918 3.54 9.196l-.065.017c-1.002-2.137-3.842-8.003-4.24-8.225-.43-.224-1.211.238-.94.908.193.543 2.441 6.153 3.284 8.24-.031.017-.065.033-.096.064-.925-1.609-3.123-5.403-3.571-5.403-.349.016-1.146.222-.206 1.77.925 1.561 2.724 5.482 2.724 5.482h.016c-.016.048 0 .079.019.128.461 2.36 2.279 4.511 2.852 5.42h-.495c-.143 0-.128.956 0 2.518.065.78.177 1.722.271 2.772-2.5-.588-5.467-.302-8.733 1.499-8.004 4.399-5.563 13.581-3.477 18.57-3.06 1.291-5.196 4.223-5.196 7.651 0 2.55 1.195 4.813 3.06 6.343-3.123.59-7.587 1.499-9.642 3.093-.448.35-.781.845-1.005 1.435-.398-.431-.716-.735-1.018-.878-4.097-1.849-12.481-4.383-17.932-5.96v-.128s-1.42-.814-.56-6.552c1.276-1.801 2.472-4.575 3.172-8.846.015.016.015.048.015.048.271.254.464-.224.464-.224.078-.191 1.815-5.627 1.401-6.822-.302-.844-.906-.478-1.242-.207-.016-.207-.016-.509-.047-.861.159-1.992.445-3.857.956-4.159 1.641-.988 2.36-2.853 1.927-4.814-.016 0-.016.016-.031.016-.51.064-.956.272-1.307.607-.128.047-.206.11-.302.159-.097-1.308-.302-3.012-.813-4.751-2.422-2.119-6.678-3.586-13.038-2.964-1.722.159-4.576 3.888-5.962 4.973-1.547 1.227-3.141 3.124-2.998 5.722.112 1.849.464 4.287.781 6.153-.349-.191-.781-.272-.987.398-.399 1.195 1.416 6.359 1.544 6.79 0 0 .193.399.414.223.735 4.352 2.073 7.142 3.555 8.91.128 1.484.159 3.826-.526 5.803-.255.064-11.796 2.55-18.361 6.215-2.248 1.244-3.919 2.631-4.352 4.113-.51 1.706-1.13 3.747-1.865 6.169h-.016a526.404 526.404 0 0 0-6.743 24.42c-.237.971-4.349.971-8.972.669-2.248-.16-4.623-.398-6.743-.623h-.062c-3.636-.398-6.457-.797-6.457-.797l-.286 1.42a4.142 4.142 0 0 0-.081.462 1.828 1.828 0 0 0-.062.286c-.511 2.741-1.373 7.173-1.404 7.38 0 .288 3.586.638 8.337.973 8.782.59 21.693 1.083 23.047.733.75-.191 1.594-1.515 2.456-3.428.669-1.466 1.37-3.283 2.024-5.18a3.28 3.28 0 0 0 .128-.398c1.961-5.817 3.571-12.274 3.571-12.274s.526 5.611 1.083 12.434c107.847 3.793 192.167 26.714 200.106 55.102.016.017.031.048.047.064-.127-21.135-.877-43.912-3.411-47.371zm-77.291-37.744c-.685-1.977-.651-4.319-.542-5.803 1.485-1.768 2.824-4.558 3.524-8.926.24.159.414-.24.414-.24.143-.414 1.93-5.594 1.547-6.79-.224-.67-.654-.59-1.006-.399.302-1.865.654-4.304.766-6.136a5.735 5.735 0 0 0-.448-2.551l15.018 9.979c-1.485 1.944-2.758 4.925-2.808 9.388l-8.91 13.421c-4.078-1.194-7.409-1.928-7.555-1.943zm24.93 11.62v.016c-.526.191-1.052.398-1.578.59a67.188 67.188 0 0 1-.604-1.992c-.925-3.06-7.188-5.739-12.914-7.587l6.871-10.33c.286 2.136.813 4.542 1.675 7.252 1.88 5.946 4.589 8.161 7.428 8.034v.016a83.8 83.8 0 0 1 .221 2.536c.034.271.05.557.065.828-.781.333-1.164.637-1.164.637zm24.532.398c0-1.259 0-2.534-.016-3.811.078.957.271 2.391.461 3.811-.143-.064-.302-.081-.445 0z" opacity=".8"/><path fill="#ffbe55" d="M85.643 288.61c-.016.112-.031.24-.031.352a1.936 1.936 0 0 1-.445-.224c.158-.047.317-.08.476-.128zM166.315 274.313c.318-.048.638-.079.956-.111h.015c0 .031 0 .079-.015.111"/><path fill="#ffbe55" d="M97.837 288.993c.209-.064.414-.111.623-.174M277.539 270.2c-.654 1.898-1.354 3.714-2.024 5.18-.862 1.913-1.706 3.236-2.456 3.428-1.354.35-14.265-.143-23.047-.733-8.782.59-21.693 1.099-23.065.749-.732-.192-1.594-1.515-2.453-3.426-.654-1.435-1.339-3.205-1.977-5.07a576.752 576.752 0 0 1 20.563-.605c2.774-.048 5.563-.064 8.353-.064 1.831 0 3.664 0 5.482.048 6.948.031 13.835.207 20.624.493zM401.469 288.229c.066.016.321.111.75.223-.081.988-.143 1.913-.208 2.853-.144-.797-.318-1.865-.542-3.076z" opacity=".9"/><path fill="#ffbe55" d="M465.977 306.48c-3.013-.623-5.834-1.532-7.412-2.837a2.346 2.346 0 0 1-.461-.431c.174.064.333.128.492.191a244.61 244.61 0 0 1 7.381 3.077z"/><path fill="#f1b99e" d="M242.634 71.067h-.025v-.135l.025.135zM250.24 71.201l-.146.308-.15-.308v-.269h.295v.269zM252.061 75.617l-1.834 1.817s-.701-1.185-1.762-2.531l1.628-3.393 1.968 4.107zM327.014 121.412v.067c-.121.876-.336 1.737-.66 2.452a.865.865 0 0 1-.056.134c-.43.917-1.062 1.561-1.937 1.63-.053.013-.106.013-.162.013-2.867-.013-5.803-1.683-6.998-2.126-.23-.081-.392-.12-.486-.109-.607.123-4.495-.767-4.495-.767l.965-7.349s1.295.591 2.575.82c.968.176 1.924.148 2.329-.498.915-1.507 2.867-3.055 3.512-3.513.85-.619 2.855-3.487 3.555-2.397.7 1.079-3.094 4.874-3.742 5.831-.566.834 3.082.511 4.645.834.012 0 .04.012.065.012.202.04.377.095.486.176.255.174.445.97.511 2.033 0 .054.016.107.016.174.036.78.011 1.696-.123 2.583z"/><path fill="#f1b99e" d="M325.825 116.42s10.333.767 10.955 1.421c.62.657.523 1.239-.451 1.213-.971-.033-10.021-.442-10.021-.442s11.989 3.062 12.615 3.476c.367.244.237 1.384-.286 1.418-.526.034-12.608-2.28-12.608-2.28s11.189 2.88 11.606 3.392c.364.45-.003 1.482-.853 1.323-.847-.146-11.407-2.198-11.407-2.198s7.995 2.632 8.091 3.298c.059.406-.013 1.393-2.049.644-2.039-.749-7.051-1.977-7.051-1.977l1.459-9.288z"/><path fill="#0b4870" d="M317.201 123.58c-.23-.081-.392-.12-.486-.109-.607.123-4.495-.767-4.495-.767l.965-7.349s1.295.591 2.575.82c-.271-1.359-.458-2.341-.458-2.341s-23.439 3.311-24.055.848c-4.119-16.397-7.484-26.775-9.383-33.09-1.887-6.3-24.582-11.133-24.582-11.133.093.257.187.5.296.741 0 0 .632 3.149-.875 5.613l-6.488 41.421c.713-.296.619 1.374-.146 1.913.657.243 1.588.646 1.749 1.023.321.794.227 1.48-.109 1.978 0 0 .579 1.588.187 2.652 0 0 .566 1.44-.28 2.637 0 0 .414 1.536-.299 2.156 0 0-1.009.511-1.56.537 0 0-1.009-.067-1.737-.067-.227.012-.417.012-.551.028-.526.081-1.684.403-3.013.215-1.336-.176-5.98-1.306-5.98-1.306l.028-.43c.579-.082.903-.135.903-.135 3.107-4.9 3.244-7.942 3.216-8.723 1.697-.834 3.474-1.616 4.066-1.602.121 0 .243.013.349.028.044 0 .084.013.125.025.495-.149 2.422-.686 3.054-.929 0 0-5.722-34.716-7.241-44.598a12.854 12.854 0 0 1-.364-2.57c-5.896 1.709-14.956 4.467-19.411 6.488-4.791 2.181-19.492 48.555-18.389 50.401 2.354 3.971 14.081 3.756 23.234 2.92-.442 9.355-1.239 17.702-2.544 20.032-4.443 7.928 21.565 8.816 21.565 8.816 16.329.847 24.743-2.369 24.743-2.369s-.352-10.473-.352-15.642c0-5.168 3.017-38.661 3.017-38.661s5.573 22.157 8.885 23.005c2.288.579 34.099-1.037 33.949-1.91-.014-.041-.042-.243-.108-.566zm-88.806-2.263c-3.892.028-7.163-.201-7.5-1.035-.887-2.181 6.893-21.903 7.406-21.646.24.121.377 10.89.094 22.681z"/><path fill="#0e538c" d="M251.616 128.439s.414 1.536-.299 2.156c0 0-1.009.511-1.56.537 0 0-1.009-.067-1.737-.067-.227.012-.417.012-.551.028-.526.081-1.684.403-3.013.215-1.336-.176-5.98-1.306-5.98-1.306l.028-.43c.579-.082.903-.135.903-.135 3.107-4.9 3.244-7.942 3.216-8.723 1.697-.834 3.474-1.616 4.066-1.602.121 0 .243.013.349.028.044 0 .084.013.125.025.495-.149 2.422-.686 3.054-.929.713-.296.619 1.374-.146 1.913.657.243 1.588.646 1.749 1.023.321.794.227 1.48-.109 1.978 0 0 .579 1.588.187 2.652-.002 0 .565 1.44-.282 2.637zM242.609 71.067c0 .146.134 1.077.364 2.57a13.011 13.011 0 0 1-.364-2.57zM256.703 76.814l.875-5.613s.632 3.149-.875 5.613z"/><path fill="#0b4870" d="M317.201 123.58c-.23-.081-.392-.12-.486-.109-.607.123-4.495-.767-4.495-.767l.965-7.349s1.295.591 2.575.82c.47 2.412 1.17 6.018 1.441 7.405z"/><path fill="#f1b99e" d="M257.525 71.067c-.121 0-.405-.014-.834-.028-1.32-.04-3.891-.107-6.451-.107h-.295c-2.41 0-4.844.067-6.217.107a2.174 2.174 0 0 0-1.093.028l-.025-.135s1.507-.889.591-7.067c-.068-.391-.134-.808-.215-1.239-1.332-7.296 13.919-.053 13.919-.053s-.121.632-.187 1.614c-.137 1.602-.174 4.134.564 6.273.081.216.149.405.243.607z"/><path fill="#cce9ff" d="M243.727 71.039c-.595.014-.984.028-1.093.028a2.174 2.174 0 0 1 1.093-.028zM250.24 71.201l-.146.308-.15-.308v-.269h.295v.269zM253.257 78.106l3.462-1.398-.015.106-6.488 41.421-.109-.674-.081-.496-.187-1.144-.243-1.494-.458-2.814-.296-1.829-.146-.917-.149-.915a6255.522 6255.522 0 0 1-5.09-31.256l-.053-.311-.227-1.48c-.081-.458-.137-.875-.202-1.266-.177-1.144-.299-1.95-.339-2.341l-.012-.135-.012-.093h.025l.903 5.668 3.393 1.371 1.535-3.204 1.628-3.393 1.967 4.108 1.194 2.486zM257.578 71.201l-.414 2.638.402-2.679c-.001.013.012.029.012.041z"/><path fill="#f1b99e" d="M251.831 32.926s10.688 1.728 9.063 18.849c-1.631 17.126-11.061 15.723-11.693 15.708-.632-.023-9.47.307-10.155-20.598-.001-.001-.303-15.459 12.785-13.959z"/><path fill="#f1b99e" d="M261.055 46.94s1.174-1.283 1.603.019c.427 1.292-1.525 6.874-1.672 7.347 0 0-.215.496-.495.224-.28-.279.564-7.59.564-7.59zM239.303 46.719s-1.149-1.3-1.603-.012c-.451 1.289 1.438 7.16 1.529 7.377 0 0 .205.51.498.235.28-.271-.424-7.6-.424-7.6z"/><path fill="#0b4870" d="m261.049 49.569-1.525 2.091s.044-4.592-.205-5.31c-.243-.721.293-3.231.087-3.748-.206-.515-6.015 5.551-17.664 4.365l-.763.291c-.757.293-.386 5.38-.386 5.38l-1.258-1.455s-1.423-8.684-1.283-10.137c.184-1.93-.47-10.941 15.924-9.391a9.874 9.874 0 0 1 5.177 2.034c1.684 1.315 3.418 3.367 3.257 6.184-.206 3.725-1.361 9.696-1.361 9.696z"/><path fill="#a77860" d="M244.331 65.211s4.408 5.148 11.41 0c0 0-1.961 3.902-6.08 3.997-4.116.091-5.33-3.997-5.33-3.997z"/><path fill="#d3d3d3" d="m294.609 157.626-7.363 127.547-.389 5.721h-68.652l-.392-5.666v-.016l-8.708-127.586z"/><path fill="#f2f2f2" d="M196.329 305.029h113.077l-21.201-19.856h-70.339zM307.385 130.028l-7.403 27.598h-96.25l-7.403-27.598z"/><path fill="#0e538c" d="m250.215 118.235-.053 7.472-3.474-6.596-5.034-12.169 2.677-1.132-10.809-31.983 9.087-2.895.025.135.903 5.668 5.159 32.131.146.917.296 1.829.457 2.814.243 1.495.187 1.144.081.496zM257.839 70.932l9.078 2.889-10.803 31.994 2.684 1.122-5.04 12.174-3.472 6.596-.056-7.472z"/><path fill="#f1b99e" d="M250.069 120.148c-.016.012-.028.012-.044.026-.794.511-2.989-.984-2.989-.984s.044-.013.125-.027c.495-.149 2.422-.686 3.054-.929.713-.295.619 1.375-.146 1.914z"/><path fill="#f1b99e" d="M251.616 128.439s.243.889.04 1.589h-13.06a1.155 1.155 0 0 1-.121-.026l.028-.43c.579-.082.903-.135.903-.135 3.107-4.9 3.244-7.942 3.216-8.723 1.697-.834 3.474-1.616 4.066-1.602.121 0 .243.013.349.028.044 0 .084.013.125.025.993.134 1.709.632 2.232.768.066.014.336.093.676.216.657.243 1.588.646 1.749 1.023.321.794.227 1.48-.109 1.978 0 0 .579 1.588.187 2.652-.001 0 .566 1.44-.281 2.637z"/><path fill="#ffbe55" d="m248.157 76.691-.921 23.292 2.917 17.869 3.107-17.955-1.289-23.206-2.721.07z"/><path fill="#ffbe55" d="M246.934 74.056h6.024v5.271h-6.024z"/><path fill="#f2f2f2" d="m250.094 71.509-1.628 3.393-1.535 3.204-3.393-1.371-.903-5.668c.109 0 .498-.014 1.093-.028 1.373-.04 3.807-.107 6.217-.107v.269l.149.308zM242.634 71.067l.903 5.668-.081-.041-.053-.311-.227-1.48-.542-3.607-.012-.135-.012-.093c-.001-.001.012-.001.024-.001z"/><path fill="#f2f2f2" d="M250.24 70.932v.269l-.146.308-.15-.308v-.269h.296z"/><path fill="#f2f2f2" d="m257.565 71.161-.402 2.679-.445 2.869-3.462 1.398-1.195-2.489-1.967-4.108.146-.308v-.269c2.559 0 5.13.067 6.451.107.43.014.713.028.834.028.012.026.028.068.04.093z"/><path fill="#f2f2f2" d="M250.227 70.932h.012v.269l-.146.308-.15-.308v-.269h.284zM256.718 76.708l.445-2.868-.42 2.854zM257.578 71.067l-.012.093c-.012-.025-.028-.067-.04-.093h.052z"/><path fill="#ffbe55" d="M220.197 125.767h11.889v4.26h-11.889z"/><path fill="#ffbe55" d="M215.736 112.524h27.398v1.616h-27.398z" transform="rotate(-73.393 229.437 113.33)"/><path fill="#ffbe55" d="M236.498 102.462a3.587 3.587 0 1 1-6.746-2.443l.915-2.531a3.593 3.593 0 0 1 4.598-2.156 3.591 3.591 0 0 1 2.151 4.598l-.918 2.532zM275.506 125.767h11.889v4.26h-11.889z"/><path fill="#ffbe55" d="M277.348 99.633h1.616v27.398h-1.616z" transform="rotate(-16.637 278.206 113.346)"/><path fill="#ffbe55" d="M271.092 102.462a3.589 3.589 0 1 0 6.749-2.443l-.915-2.531a3.588 3.588 0 1 0-6.749 2.442l.915 2.532z"/><path fill="#f2f2f2" d="M204.579 182.925h94.955v25.091h-94.955z"/><path fill="#ffbe55" d="M17.838 320.808c-.271-.079-.398-.128-.398-.128s.174-5.308.286-10.009c0 1.387.016 2.708.031 3.968v.176c-.078 2.406-.143 4.176-.143 4.176s.065.031.193.064c0 .622.015 1.196.031 1.753zM17.9 325.288c.019 1.211.034 1.865.034 1.865l-.112-.304c.031-.509.047-1.019.078-1.561zM482.411 316.504c.078 2.408.143 4.176.143 4.176s-.065.033-.193.064l.05-4.24zM482.505 299.116c.031-.096.081-.176.112-.271a71.906 71.906 0 0 0-.112 1.658v-1.387z"/></svg>